<svg width="660" height="102.91170219323254" viewBox="0 0 476.5212608464417 74.30244558329196" class="css-1j8o68f"
    xmlns="http://www.w3.org/2000/svg">
    <defs id="SvgjsDefs1896">
        <linearGradient id="SvgjsLinearGradient1903">
            <stop id="SvgjsStop1904" stop-color="#00ff8f" offset="0"></stop>
            <stop id="SvgjsStop1905" stop-color="#00a1ff" offset="1"></stop>
        </linearGradient>
        <linearGradient id="SvgjsLinearGradient1906">
            <stop id="SvgjsStop1907" stop-color="#00ff8f" offset="0"></stop>
            <stop id="SvgjsStop1908" stop-color="#00a1ff" offset="1"></stop>
        </linearGradient>
        <linearGradient id="SvgjsLinearGradient1909">
            <stop id="SvgjsStop1910" stop-color="#00ff8f" offset="0"></stop>
            <stop id="SvgjsStop1911" stop-color="#00a1ff" offset="1"></stop>
        </linearGradient>
    </defs>
    <g id="SvgjsG1897" featurekey="nameLeftFeature-0"
        transform="matrix(2.5436627530525064,0,0,2.5436627530525064,-4.645492865597578,4.0211355505782755)"
        fill="url(#SvgjsLinearGradient1903)">
        <path
            d="M11.465 5.888999999999999 l2.9199 0 l0 14.111 l-3.3887 0 l-6.25 -10.088 l0 10.088 l-2.9199 0 l0 -14.111 l3.3496 0 l6.2891 10.029 l0 -10.029 z M28.144765624999998 8.467 l-5.2344 0 l0 3.2031 l4.6387 0 l0 2.5488 l-4.6387 0 l0 3.1934 l5.2344 0 l0 2.5879 l-8.1836 0 l0 -14.111 l8.1836 0 l0 2.5781 z M31.542965625 20 l5.498 -7.3633 l-5.3418 -6.748 l3.5645 0 l3.5156 4.6289 l3.5156 -4.6289 l3.5645 0 l-5.3418 6.748 l5.498 7.3633 l-3.7305 0 l-3.5059 -4.9902 l-3.5059 4.9902 l-3.7305 0 z M58.23265625 5.888999999999999 l0 2.5781 l-3.3496 0 l0 11.533 l-2.9004 0 l0 -11.533 l-3.3691 0 l0 -2.5781 l9.6191 0 z">
        </path>
    </g>
    <g id="SvgjsG1898" featurekey="inlineSymbolFeature-0"
        transform="matrix(1.3546818174537694,0,0,1.3546818174537694,156.22364403122174,-30.58299210586709)"
        fill="url(#SvgjsLinearGradient1906)">
        <g xmlns="http://www.w3.org/2000/svg">
            <path fill-rule="evenodd" clip-rule="evenodd"
                d="M22.334,37.824l-5.538,1.863l0.552,5.815c0.486,2.484-0.645,6.136-3.507,6.545   c-0.612,0.085-1.202,0.014-1.778-0.214c-0.823-0.327-1.347-0.864-2.069-1.317c-0.546-0.34-0.996-0.434-1.638-0.318   c-2.198,0.403-2.171,3.164-1.806,4.877c0.231,1.095,0.823,2.206,1.647,2.969c0.258,0.239,1.035,0.832,1.43,0.683   c0.642-0.241,1.046-0.746,1.419-1.295c0.568-0.832,1.021-1.663,1.839-2.297c0.549-0.425,1.183-0.683,1.874-0.768   c1.213-0.151,2.366,0.252,3.285,1.04c1.186,1.015,1.866,2.536,2.261,4.012l3.631,13.568l5.327-1.795l0.077-0.016   c0.837-0.176,2.882-1.389,2.577-2.464c-0.038-0.137-0.099-0.233-0.2-0.332c-0.368-0.359-1.199-0.733-1.66-1.043   c-1.1-0.741-1.773-1.693-2.086-2.989c-0.939-3.872,2.467-6.238,5.804-6.949c1.647-0.349,3.474-0.203,5.025,0.458   c1.4,0.601,2.755,1.745,2.857,3.373c0.077,1.29-0.346,2.346-1.007,3.419c-0.31,0.499-0.886,1.271-1.024,1.83   c-0.049,0.203-0.044,0.381,0.019,0.579c0.431,1.416,2.736,1.29,3.834,1.114l13.809-2.193l0,0l1.356-0.217l-3.65-13.645   c-0.881-3.296-2.643-4.226-4.062-4.053c-2.363,0.291-2.357,3.365-4.819,4.287c-1.68,0.628-4.254-1.641-4.893-4.646   c-0.574-2.711-0.091-5.955,2.898-6.501c2.882-0.53,3.499,2.13,5.538,1.839c2.127-0.305,2.673-3.463,2.346-4.992l-0.53-5.607   l-1.35,0.217l0,0l-13.87,2.201c-1.509,0.242-3.178,0.236-4.583-0.434c-1.095-0.519-1.932-1.411-2.289-2.577   c-0.206-0.667-0.225-1.35-0.06-2.028c0.247-1.002,0.823-1.756,1.35-2.613c0.349-0.565,0.648-1.136,0.606-1.822   c-0.025-0.42-0.884-0.889-1.207-1.026c-1.032-0.442-2.286-0.532-3.381-0.299c-1.712,0.365-4.245,1.463-3.719,3.633   c0.154,0.634,0.423,1.01,0.955,1.369c0.705,0.475,1.411,0.733,2.047,1.353c0.442,0.434,0.746,0.944,0.917,1.54   C27.677,34.739,24.801,37.256,22.334,37.824L22.334,37.824z M51.316,31.09l-15.28,2.426c-3.37,0.535-4.937-0.694-5.354-2.061   c-0.694-2.278,2.116-3.524,1.954-6.147c-0.107-1.789-3.227-3.216-6.232-2.577c-2.711,0.576-5.478,2.335-4.761,5.288   c0.689,2.849,3.367,2.333,3.933,4.314c0.587,2.064-2.077,3.848-3.606,4.174l-6.633,2.231l0.659,6.965   c0.327,1.531-0.222,4.69-2.346,4.992c-2.039,0.291-2.656-2.366-5.538-1.839c-2.991,0.549-3.474,3.793-2.898,6.504   c0.639,3.002,3.211,5.275,4.893,4.646c2.462-0.922,2.456-3.996,4.819-4.287c1.419-0.173,3.181,0.757,4.062,4.053l4.004,14.97   l6.63-2.231c1.531-0.327,4.193-2.11,3.606-4.174c-0.563-1.981-3.241-1.465-3.933-4.311c-0.714-2.956,2.053-4.715,4.764-5.291   c3.002-0.639,6.123,0.788,6.232,2.577c0.159,2.624-2.648,3.872-1.954,6.147c0.417,1.367,1.984,2.596,5.354,2.061l15.305-2.431   l6.965-0.659c1.531-0.324,4.69,0.222,4.992,2.349c0.291,2.036-2.366,2.656-1.839,5.538c0.549,2.989,3.793,3.472,6.504,2.895   c3.005-0.637,5.275-3.211,4.646-4.89c-0.922-2.462-3.996-2.459-4.287-4.819c-0.173-1.419,0.757-3.181,4.053-4.062L95,59.438   l-2.231-6.633c-0.324-1.529-2.11-4.193-4.174-3.606c-1.981,0.565-1.465,3.244-4.311,3.933c-2.956,0.716-4.715-2.05-5.291-4.761   c-0.639-3.005,0.788-6.125,2.577-6.235c2.624-0.159,3.872,2.651,6.147,1.957c1.367-0.417,2.596-1.987,2.061-5.354L87.346,23.43   l-14.97,4.007c-3.296,0.881-4.226,2.643-4.051,4.062c0.288,2.36,3.362,2.357,4.284,4.819c0.628,1.68-1.641,4.251-4.646,4.89   c-2.711,0.576-5.955,0.093-6.501-2.895c-0.53-2.882,2.13-3.502,1.839-5.541c-0.305-2.124-3.463-2.67-4.992-2.346l-6.949,0.659   C51.344,31.084,51.335,31.087,51.316,31.09L51.316,31.09z">
            </path>
        </g>
    </g>
    <g id="SvgjsG1899" featurekey="nameRightFeature-0"
        transform="matrix(2.475158798479782,0,0,2.475158798479782,285.6627227460709,4.908301726781852)"
        fill="url(#SvgjsLinearGradient1909)">
        <path
            d="M13.632840625 20.19531 c-3.0273 0 -5.3906 -1.4551 -5.8203 -4.1016 l3.0273 -0.69336 c0.19531 1.582 1.3574 2.4023 2.9102 2.4023 c1.1914 0 2.1387 -0.52734 2.1289 -1.7188 c-0.0097656 -1.3281 -1.5723 -1.748 -3.291 -2.2754 c-2.0703 -0.64453 -4.2871 -1.4063 -4.2871 -4.0039 c0 -2.627 2.1484 -4.1113 4.9805 -4.1113 c2.4805 0 4.9805 1.0059 5.5469 3.7109 l-2.832 0.70313 c-0.26367 -1.4063 -1.2109 -2.0215 -2.5391 -2.0215 c-1.1816 0 -2.1875 0.48828 -2.1875 1.6504 c0 1.084 1.3867 1.4453 2.9883 1.9238 c2.1289 0.64453 4.6484 1.4648 4.6484 4.2773 c0 2.998 -2.5098 4.2578 -5.2734 4.2578 z M31.718984374999998 5.888999999999999 l0 2.5781 l-3.3496 0 l0 11.533 l-2.9004 0 l0 -11.533 l-3.3691 0 l0 -2.5781 l9.6191 0 z M42.109403125 20.19531 c-4.1504 0 -7.2168 -2.832 -7.2168 -7.2559 c0 -4.4336 3.0664 -7.2461 7.2168 -7.2461 c4.1406 0 7.207 2.8125 7.207 7.2461 c0 4.4238 -3.0664 7.2559 -7.207 7.2559 z M42.109403125 17.5098 c2.4316 0 4.2969 -1.709 4.2969 -4.5703 c0 -2.8516 -1.8652 -4.5508 -4.2969 -4.5508 s-4.2969 1.6992 -4.2969 4.5508 c0 2.8613 1.8652 4.5703 4.2969 4.5703 z M61.386675 20 l-3.6719 -6.2109 l-0.84961 0 l0 6.2109 l-2.9297 0 l0 -14.111 l5.1172 0 c3.1934 0 4.541 1.8848 4.541 4.2188 c0 1.8945 -1.0742 3.125 -2.9883 3.5352 l4.248 6.3574 l-3.4668 0 z M56.865275 8.32 l0 3.3691 l1.7285 0 c1.5625 0 2.1973 -0.66406 2.1973 -1.6797 c0 -1.0059 -0.63477 -1.6895 -2.1973 -1.6895 l-1.7285 0 z M77.109609375 8.467 l-5.2344 0 l0 3.2031 l4.6387 0 l0 2.5488 l-4.6387 0 l0 3.1934 l5.2344 0 l0 2.5879 l-8.1836 0 l0 -14.111 l8.1836 0 l0 2.5781 z">
        </path>
    </g>
</svg>